<svg width="16" height="17" viewBox="0 0 16 17" fill="none" xmlns="http://www.w3.org/2000/svg">
<g id="Cake" clip-path="url(#clip0_2113_5610)">
<path id="Vector" d="M13 5.66707H8.5V5.10457C8.92916 4.9931 9.30923 4.74243 9.58066 4.39182C9.8521 4.04121 9.99958 3.61047 10 3.16707C10 1.41707 8.3475 0.297698 8.2775 0.250823C8.19533 0.196003 8.09877 0.166748 8 0.166748C7.90123 0.166748 7.80467 0.196003 7.7225 0.250823C7.6525 0.297698 6 1.41707 6 3.16707C6.00042 3.61047 6.1479 4.04121 6.41934 4.39182C6.69077 4.74243 7.07084 4.9931 7.5 5.10457V5.66707H3C2.60218 5.66707 2.22064 5.82511 1.93934 6.10641C1.65804 6.38772 1.5 6.76925 1.5 7.16707V8.6252C1.50051 9.17065 1.67574 9.70159 2 10.1402V12.6671C2 13.0649 2.15804 13.4464 2.43934 13.7277C2.72064 14.009 3.10218 14.1671 3.5 14.1671H12.5C12.8978 14.1671 13.2794 14.009 13.5607 13.7277C13.842 13.4464 14 13.0649 14 12.6671V10.1402C14.3243 9.70159 14.4995 9.17065 14.5 8.6252V7.16707C14.5 6.76925 14.342 6.38772 14.0607 6.10641C13.7794 5.82511 13.3978 5.66707 13 5.66707ZM7 3.16707C7 2.31895 7.625 1.63832 8 1.3052C8.375 1.63832 9 2.31895 9 3.16707C9 3.43229 8.89464 3.68664 8.70711 3.87418C8.51957 4.06172 8.26522 4.16707 8 4.16707C7.73478 4.16707 7.48043 4.06172 7.29289 3.87418C7.10536 3.68664 7 3.43229 7 3.16707ZM13.5 8.6252C13.5 9.45332 12.8462 10.1446 12.0425 10.1664C11.842 10.1721 11.6424 10.1376 11.4556 10.0648C11.2687 9.99196 11.0983 9.88243 10.9545 9.74264C10.8107 9.60285 10.6964 9.43564 10.6183 9.25089C10.5402 9.06615 10.5 8.86763 10.5 8.66707C10.5 8.53446 10.4473 8.40729 10.3536 8.31352C10.2598 8.21975 10.1326 8.16707 10 8.16707C9.86739 8.16707 9.74021 8.21975 9.64645 8.31352C9.55268 8.40729 9.5 8.53446 9.5 8.66707C9.5 9.0649 9.34196 9.44643 9.06066 9.72773C8.77936 10.009 8.39782 10.1671 8 10.1671C7.60218 10.1671 7.22064 10.009 6.93934 9.72773C6.65804 9.44643 6.5 9.0649 6.5 8.66707C6.5 8.53446 6.44732 8.40729 6.35355 8.31352C6.25979 8.21975 6.13261 8.16707 6 8.16707C5.86739 8.16707 5.74021 8.21975 5.64645 8.31352C5.55268 8.40729 5.5 8.53446 5.5 8.66707C5.50008 8.86768 5.45992 9.06627 5.38189 9.25109C5.30387 9.4359 5.18956 9.60319 5.04574 9.74305C4.90192 9.88291 4.73151 9.99249 4.54459 10.0653C4.35766 10.1382 4.15803 10.1728 3.9575 10.1671C3.15375 10.1446 2.5 9.45332 2.5 8.6252V7.16707C2.5 7.03446 2.55268 6.90729 2.64645 6.81352C2.74021 6.71975 2.86739 6.66707 3 6.66707H13C13.1326 6.66707 13.2598 6.71975 13.3536 6.81352C13.4473 6.90729 13.5 7.03446 13.5 7.16707V8.6252Z" fill="#A4A7AE"/>
</g>
<defs>
<clipPath id="clip0_2113_5610">
<rect width="16" height="16" fill="white" transform="translate(0 0.166748)"/>
</clipPath>
</defs>
</svg>
