<svg width="16" height="17" viewBox="0 0 16 17" fill="none" xmlns="http://www.w3.org/2000/svg">
<g id="Phone">
<path id="Vector" d="M14.4925 11.1092C14.3811 11.9561 13.9651 12.7335 13.3224 13.2962C12.6797 13.8588 11.8542 14.1683 11 14.1667C6.03751 14.1667 2.00001 10.1292 2.00001 5.16674C1.99847 4.31255 2.30794 3.48701 2.87059 2.8443C3.43324 2.2016 4.21061 1.78569 5.05751 1.67424C5.27166 1.64809 5.48854 1.69191 5.67575 1.79914C5.86296 1.90638 6.01047 2.07128 6.09626 2.26924L7.41626 5.21612V5.22362C7.48194 5.37515 7.50906 5.54059 7.49521 5.70517C7.48136 5.86974 7.42696 6.02832 7.33688 6.16674C7.32563 6.18362 7.31376 6.19924 7.30126 6.21487L6.00001 7.75737C6.46813 8.70862 7.46313 9.69487 8.42688 10.1642L9.94813 8.86987C9.96307 8.85731 9.97872 8.84562 9.99501 8.83487C10.1333 8.74262 10.2924 8.68631 10.458 8.67103C10.6235 8.65575 10.7903 8.68199 10.9431 8.74737L10.9513 8.75112L13.8956 10.0705C14.0939 10.156 14.2592 10.3034 14.3668 10.4906C14.4744 10.6778 14.5185 10.8949 14.4925 11.1092Z" fill="#A4A7AE"/>
</g>
</svg>
