<svg width="32" height="32" viewBox="0 0 32 32" fill="none" xmlns="http://www.w3.org/2000/svg">
<path d="M25.6 18.5916C25.6 25.6608 21.302 28.1916 16 28.1916C10.6981 28.1916 6.40002 25.6608 6.40002 18.5916C6.40002 12 10.4 8.1916 10.4 8.1916C10.4 8.1916 11.0748 11.1241 11.4426 10.5916C15.4426 4.8 13.6 2.5915 14.4 2.5916C14.8107 2.59165 18.0852 4.2084 19.8426 11.2C20.1504 12.4244 20.9401 7.35532 21.4426 8.1916C22.9821 10.7535 25.6 12.8 25.6 18.5916Z" fill="#6172F3"/>
<path d="M19.8426 21.4C19.8426 24.4928 18.0517 25.6 15.8426 25.6C13.6335 25.6 11.8426 24.4928 11.8426 21.4C11.8426 19.0785 13.0093 16.85 13.5093 16.85C13.8426 16.85 14.0172 18.4734 14.1759 18.25C14.6759 17.55 15.5093 14.4 15.8426 14.4C16.1759 14.4 19.8426 18.3072 19.8426 21.4Z" fill="#EEF4FF"/>
</svg>
